<?xml version="1.0" standalone="no"?>
<!DOCTYPE svg PUBLIC "-//W3C//DTD SVG 1.1//EN" "http://www.w3.org/Graphics/SVG/1.1/DTD/svg11.dtd" >
<svg xmlns="http://www.w3.org/2000/svg">
<metadata></metadata>
<defs>
<font id="alexregular" horiz-adv-x="577" >
<font-face units-per-em="2048" ascent="1638" descent="-410" />
<missing-glyph horiz-adv-x="468" />
<glyph horiz-adv-x="2048" />
<glyph horiz-adv-x="2048" />
<glyph unicode="&#xd;" horiz-adv-x="468" />
<glyph unicode=" "  horiz-adv-x="468" />
<glyph unicode="&#x09;" horiz-adv-x="468" />
<glyph unicode="&#xa0;" horiz-adv-x="468" />
<glyph unicode="!" horiz-adv-x="534" d="M141 106q0 53 37 89t88 36q53 0 89 -37t36 -90t-36 -87.5t-89 -34.5q-51 0 -88 35.5t-37 88.5zM172 469q0 -139 152 -139h38v995h-190v-856z" />
<glyph unicode="&#x22;" horiz-adv-x="802" d="M164 1481h196v-459l-135 2zM442 1481h197v-459l-141 2z" />
<glyph unicode="#" horiz-adv-x="1107" d="M84 309v160h197l30 209h-172v162h197l61 362l162 -2l-55 -360h180l49 362l174 -2l-55 -360h172v-162h-195l-30 -209h172v-160h-197l-41 -309l-168 2l39 307h-176l-49 -309l-162 2l41 307h-174zM453 469h176l30 209h-176z" />
<glyph unicode="$" horiz-adv-x="1013" d="M35 162l86 137q150 -125 299 -141v446q-180 61 -250 115q-102 86 -102 244q0 162 93 257t259 101v174h145v-174h264l37 -285l-18 -10q-100 141 -283 154v-392q178 -59 260 -131q109 -98 109 -266q0 -195 -184 -323v-2q-41 -27 -87.5 -44.5t-97.5 -25.5v-195h-145v185 q-215 12 -385 176zM276 993q1 -100 144 -157v333q-143 -39 -144 -176zM565 172q154 54 154 197q0 117 -154 184v-381z" />
<glyph unicode="%" horiz-adv-x="1490" d="M61 1096q0 141 78 241q80 100 221 101q135 0 218 -107q75 -96 75 -235q0 -152 -73 -250q-80 -113 -226 -113q-143 0 -221 115q-72 102 -72 248zM205 1096q0 -254 149 -254q148 0 148 254q0 215 -144 229l-2 2q-152 -12 -151 -231zM313 0l699 1425h164l-699 -1425h-164z M846 338q0 145 76 240q84 104 223 104q137 0 219 -107q74 -94 74 -237q0 -147 -72 -250q-80 -113 -225 -113q-143 0 -223 115q-72 102 -72 248zM989 338q0 -254 150 -254q147 0 147 254q0 231 -147 231q-150 0 -150 -231z" />
<glyph unicode="&#x26;" horiz-adv-x="1191" d="M49 268q0 164 109 283q37 43 233 186q-158 227 -160 365q-2 88 70 153q84 74 231 74q322 0 322 -278q0 -182 -227 -349l245 -331l105 84l86 -115l-96 -82l176 -258h-205l-113 152q-53 -41 -97 -69t-79 -44q-117 -53 -246 -53q-53 0 -93 3t-64 7q-66 16 -115 59 q-82 70 -82 213zM238 293q0 -166 159 -170q98 -2 185 39q61 28 155 102l-252 338q-78 -59 -127 -98t-65 -58q-55 -61 -55 -153zM420 1083q0 -78 115 -247q96 74 108 94q31 40 31 112q0 150 -133 150q-18 0 -40 -10.5t-40.5 -25.5t-29.5 -34.5t-11 -38.5z" />
<glyph unicode="'" horiz-adv-x="559" d="M190 1481h177l2 -461l-148 4z" />
<glyph unicode="(" horiz-adv-x="655" d="M61 618q0 485 205 740q84 104 228 221l102 -94q-209 -197 -248 -301h2q-29 -66 -48 -131.5t-30 -130.5q-16 -102 -18 -306q-4 -340 94 -567q45 -109 248 -299l-102 -96q-154 129 -230 223q-203 252 -203 741z" />
<glyph unicode=")" horiz-adv-x="600" d="M33 -250q201 186 246 301q94 227 96 567q4 336 -94 568q-47 109 -248 301l102 94q154 -127 227 -223q152 -193 189 -459q8 -59 12 -129t4 -152q0 -174 -18 -282v2q-37 -274 -187 -461q-86 -109 -227 -221z" />
<glyph unicode="*" horiz-adv-x="770" d="M47 877l180 100l-180 90l76 147l182 -102v207h152v-207l180 109l84 -140l-186 -104l182 -98l-80 -144l-180 109v-211h-154v211l-174 -109z" />
<glyph unicode="+" horiz-adv-x="903" d="M68 453v149h305v350h149v-350h314v-149h-314v-349l-149 -2v351h-305z" />
<glyph unicode="," horiz-adv-x="479" d="M117 111q0 53 33.5 91t87.5 38q49 0 84.5 -33t39.5 -82q12 -152 -98 -266q-10 -10 -33.5 -28.5t-58.5 -41.5l-53 76q72 53 98 125q-100 18 -100 121z" />
<glyph unicode="-" d="M72 469v166h420v-166h-420z" />
<glyph unicode="." horiz-adv-x="466" d="M109 113q0 53 35.5 88t88.5 35q51 0 88 -36t37 -89t-36.5 -88t-88.5 -35q-53 0 -88.5 35.5t-35.5 89.5z" />
<glyph unicode="/" horiz-adv-x="1087" d="M45 37l846 1522l151 -84l-843 -1530z" />
<glyph unicode="0" horiz-adv-x="1136" d="M96 596q0 246 109 416q129 197 362 196q240 0 365 -196q108 -170 108 -416t-110 -418q-129 -199 -363 -198q-233 0 -362 198q-109 170 -109 418zM293 598q0 -158 61 -303q78 -184 213 -184q139 0 217 182q58 135 58 305q0 158 -60 301q-78 182 -215 182q-135 0 -213 -184 q-61 -143 -61 -299z" />
<glyph unicode="1" horiz-adv-x="659" d="M70 889v151l211 160h200v-1030q0 -127 109 -152v-18h-301v1051z" />
<glyph unicode="2" horiz-adv-x="940" d="M70 0v113q160 180 278.5 324.5t204.5 256.5q94 127 94 228q0 80 -59 127q-51 39 -137 38q-260 0 -357 -133l-18 11l37 233l389 2q72 0 133 -20.5t105 -59.5t70 -94t26 -127q0 -143 -170 -375q-66 -88 -145 -187t-173 -212l520 -4v-121h-798z" />
<glyph unicode="3" horiz-adv-x="1009" d="M51 236l152 61q96 -176 264 -176q98 0 176 65q76 68 76 166q0 143 -98 201q-88 53 -287 53v121q129 4 209 43q96 49 96 145q0 156 -229 156h-254v133l278 -2q422 10 422 -282q0 -143 -190 -205q104 -27 180 -113q94 -99 90 -242q-6 -174 -148 -282q-131 -98 -317 -98 q-285 0 -420 256z" />
<glyph unicode="4" horiz-adv-x="901" d="M55 393v119l426 573q49 66 74 86q45 35 104 35h15q12 0 35 -2v-686h137v-125h-137v-397h-283l-2 20q59 20 81.5 48t22.5 88v241h-473zM233 516l295 2v393z" />
<glyph unicode="5" horiz-adv-x="999" d="M66 152l75 120q195 -143 363 -143q244 0 244 262q0 96 -78 158q-70 53 -166 57h-359l66 594h633l26 -285l-22 -8q-100 162 -262 162h-238l-33 -332h265q147 0 243 -96q97 -96 97 -252q0 -209 -93.5 -304t-302.5 -95q-143 0 -243 35q-96 33 -215 127z" />
<glyph unicode="6" horiz-adv-x="1013" d="M84 588q0 260 133 430q147 188 399 188h56q53 0 153 -2l23 -248l-19 -12q-104 129 -221 129q-88 -2 -142 -37t-104 -125q-63 -113 -63 -252q121 86 242 86q393 0 389 -387q-4 -156 -111 -256q-109 -102 -284 -102q-233 0 -351 184q-100 156 -100 404zM291 528 q-4 -139 31 -237q59 -164 206 -164q104 0 174 86q60 72 64 164q2 229 -229 229q-137 0 -246 -78z" />
<glyph unicode="7" horiz-adv-x="878" d="M37 963v237h805v-115l-498 -1116q-129 14 -129 123q0 37 23 88l395 887h-436q-115 0 -140 -104h-20z" />
<glyph unicode="8" horiz-adv-x="999" d="M88 340q0 213 166 305q-141 86 -141 242t123 243q109 82 270 82q158 0 264 -79q123 -88 123 -238q0 -166 -137 -248q76 -43 120 -128t44 -177q0 -164 -127 -266q-119 -90 -287 -90q-170 0 -289 90q-129 98 -129 264zM272 362q0 -98 70 -169q72 -74 166 -74q92 0 160 74 q69 71 69 165t-71 162q-70 70 -162 70q-90 0 -162 -68q-70 -68 -70 -160zM293 899q0 -88 65 -141q57 -51 146 -51q43 0 81 13t67.5 38.5t47 61.5t17.5 79q0 86 -64 137q-57 45 -147 45q-84 0 -148 -47q-66 -53 -65 -135z" />
<glyph unicode="9" horiz-adv-x="995" d="M74 842q0 162 125 266q117 98 282 98q233 0 346 -186q94 -150 95 -402q0 -262 -131 -432q-145 -188 -396 -188h-67t-148 2l-22 250l18 12q102 -129 227 -129q145 0 230 139q74 121 74 275q-117 -86 -242 -86q-391 0 -391 381zM240 844q0 -244 229 -244q137 0 246 78v31 q2 371 -230 370q-94 0 -172 -71q-73 -70 -73 -164z" />
<glyph unicode=":" horiz-adv-x="473" d="M111 111q0 53 36.5 89t88.5 36q53 0 88.5 -36t35.5 -89t-35.5 -89t-88.5 -36q-51 0 -88 36.5t-37 88.5zM111 707q0 53 36.5 88.5t88.5 35.5q53 0 88.5 -35.5t35.5 -88.5t-35.5 -89t-88.5 -36q-51 0 -88 36.5t-37 88.5z" />
<glyph unicode=";" horiz-adv-x="483" d="M117 111q0 53 33.5 91t87.5 38q124 -1 124 -146q0 -180 -190 -305l-53 76q72 53 98 125q-45 8 -72.5 42t-27.5 79zM119 723q0 53 35.5 88t89.5 35q51 0 88 -36t37 -89t-37 -88t-88 -35q-53 0 -89 36t-36 89z" />
<glyph unicode="&#x3c;" horiz-adv-x="673" d="M57 629l346 446l215 2l-337 -448l337 -447h-221z" />
<glyph unicode="=" horiz-adv-x="995" d="M111 645v170h751v-170h-751zM113 279v170h751v-170h-751z" />
<glyph unicode="&#x3e;" horiz-adv-x="663" d="M51 182l340 447l-340 448l228 -2l333 -446l-336 -447h-225z" />
<glyph unicode="?" horiz-adv-x="976" d="M141 1194v129l279 2q184 0 311 -96q143 -105 143 -285q0 -127 -92 -229q-88 -98 -217 -111l-139 -12v-258h-39q-152 0 -151 139v254q197 0 274 27q147 49 147 204q0 143 -106 199q-78 41 -232 41h-40q-25 0 -56 -2t-51 -2h-31zM205 111q0 53 35.5 89t89.5 36q53 0 89 -37 t36 -90t-37 -88t-88 -35q-53 0 -89 35.5t-36 89.5z" />
<glyph unicode="@" horiz-adv-x="1550" d="M72 608q0 260 186 404q168 127 438 131q209 2 295 -52.5t86 -193.5v-432q0 -176 -207 -176h-151q-63 0 -118.5 19.5t-94.5 54t-61.5 86t-22.5 114.5q0 115 86 193t260 78q12 0 31.5 -1.5t40.5 -1.5q23 0 42 -1t31 -1v33q0 43 -10 72t-34.5 45t-66.5 23.5t-106 7.5 q-184 0 -313 -99q-143 -111 -143 -293q0 -203 155 -339q145 -131 350 -132q240 0 406 166q166 170 166 406q0 238 -168 405q-168 168 -406 168q-227 0 -407 -168l-107 103q205 223 516 223q305 0 519 -213q215 -211 215 -516t-213 -518t-518 -213q-268 0 -469 172 q-207 182 -207 446zM600 567q0 -68 47 -114.5t113 -46.5h94q55 6 55 55v241q-78 2 -125 3h-63q-31 0 -78 -37q-43 -33 -43 -101z" />
<glyph unicode="A" horiz-adv-x="1126" d="M29 82q0 27 12 59l440 1180h168l443 -1321h-363v16q104 23 105 113q0 41 -33 133q-12 35 -24.5 67.5t-22.5 67.5h-461l-156 -424q-45 4 -76.5 34t-31.5 75zM340 518h377l-180 535z" />
<glyph unicode="B" horiz-adv-x="1112" d="M43 1305v16h547q141 0 254 -107q111 -102 114 -227v-8q0 -93 -45 -169q-47 -79 -127 -105q116 -39 186 -129q68 -87 68 -195v-6q-6 -375 -460 -375h-289q-141 0 -141 150v1028q0 100 -107 127zM336 176q-2 -55 72 -55h153q254 0 254 244q0 241 -260 241h-2h-217v-430z M336 727h160q245 0 245 242q0 49 -18 91t-50 73.5t-75 49t-92 17.5h-170v-473z" />
<glyph unicode="C" horiz-adv-x="1064" d="M35 641q0 266 133 461q152 219 410 219h389l37 -285l-19 -10q-115 164 -303 164q-219 0 -326 -162q-90 -139 -90 -366q0 -190 70 -330q90 -182 256 -182q102 0 176 30q61 23 154 92l75 -120q-201 -162 -438 -162q-227 0 -385 215q-139 199 -139 436z" />
<glyph unicode="D" horiz-adv-x="1163" d="M43 1305v16h516q256 0 406 -199q135 -180 135 -444q0 -287 -111 -465q-135 -213 -403 -213h-287q-150 0 -149 135v1032q0 113 -107 138zM344 178q0 -55 70 -55h145q330 0 330 541q0 534 -406 534h-2h-137v-1020z" />
<glyph unicode="E" horiz-adv-x="987" d="M53 1305v18h848v-229h-16q-31 106 -140 106h-395v-473h412v-119h-412v-432q0 -55 60 -55h491v-121h-604q-137 0 -137 133v1038q0 102 -107 134z" />
<glyph unicode="F" horiz-adv-x="956" d="M57 1305v18h848v-229h-16q-31 106 -139 106h-396v-473h412v-119h-412v-608h-65q-125 0 -125 133v1038q0 102 -107 134z" />
<glyph unicode="G" horiz-adv-x="1150" d="M70 657q0 260 143 453q156 211 408 211h362v-121h-35h-160q-57 0 -73 -2q-416 -23 -416 -539q0 -186 76 -340q92 -196 252 -196h2h114q33 0 17 -2q102 6 102 45v416q0 106 -106 131v14h301v-569v2v-17q0 -151 -142 -151h-321q-258 0 -401 211q-123 184 -123 454z" />
<glyph unicode="H" horiz-adv-x="1161" d="M111 0v1321h57q135 0 135 -127v-467h559v459q0 43 -28.5 76.5t-73.5 42.5v16h295v-1321h-193v604l-559 2v-606h-192z" />
<glyph unicode="I" horiz-adv-x="495" d="M41 1305v16h297v-1325h-68q-125 0 -125 139v1045q0 106 -104 125z" />
<glyph unicode="J" horiz-adv-x="694" d="M35 -4v129h102h5q202 0 202 315v721q0 125 -104 139v21h295v-879q0 -446 -394 -446h-106z" />
<glyph unicode="K" horiz-adv-x="1060" d="M18 1303v18h297v-537l488 537h196l-479 -537l518 -784h-231l-422 637l-70 -74v-563h-59q-131 0 -131 141v1022q0 115 -107 140z" />
<glyph unicode="L" horiz-adv-x="890" d="M104 0v1321h52q139 0 139 -135v-1036h391q68 0 107 28q27 20 49 82h20v-260h-758z" />
<glyph unicode="M" horiz-adv-x="1511" d="M43 1305v18h291l444 -1032l404 1030h209v-1192q0 -135 -129 -135h-64v967l-371 -961h-161l-367 926v-926h-254v16q59 20 83 51t24 95v1005q0 115 -109 138z" />
<glyph unicode="N" horiz-adv-x="1161" d="M43 0v18q109 29 109 160v975q0 125 -107 152v16h268l596 -1016v1016h146v-1321h-84q-96 0 -176 139l-494 856v-995h-258z" />
<glyph unicode="O" horiz-adv-x="1277" d="M63 680q0 266 148 459q162 211 422 211q262 0 424 -209q147 -193 147 -461q0 -270 -145 -475q-162 -223 -426 -223q-260 0 -424 225q-145 201 -146 473zM279 680q0 -227 102 -385q115 -170 254 -170q172 0 272 203q82 162 82 352q0 184 -84 336q-102 182 -272 182 q-168 0 -271 -182q-84 -152 -83 -336z" />
<glyph unicode="P" horiz-adv-x="972" d="M23 1303v20h530q158 0 268 -104q111 -101 111 -261q0 -158 -101 -258q-102 -102 -256 -102h-253v-602h-56q-135 0 -135 139v1024q0 119 -108 144zM322 743h208q98 0 155.5 61t57.5 159q0 84 -63 147t-148 64h-210v-431z" />
<glyph unicode="Q" horiz-adv-x="1294" d="M68 680q0 266 147 459q162 211 422 211q262 0 424 -209q147 -193 147 -461q0 -254 -133 -453q-51 -78 -92 -106h215v-125h-516h-109q-225 29 -360 217q-145 201 -145 467zM279 680q0 -227 102 -385q96 -145 256 -145t256 145q100 156 100 385q0 186 -84 336 q-102 176 -274 176h2q-172 0 -275 -176q-84 -150 -83 -336z" />
<glyph unicode="R" horiz-adv-x="1030" d="M25 1305v18h544q162 0 271 -106q110 -103 110 -260q0 -144 -90 -246q-90 -98 -229 -111l344 -600h-227l-338 598h-91v-602h-51q-139 0 -139 147v1028q0 113 -104 134zM319 743q117 -2 185 -2h92q49 0 106 62q58 60 58 158q0 84 -64 147q-61 66 -145 66h-232v-431z" />
<glyph unicode="S" horiz-adv-x="1013" d="M57 162l86 137q170 -143 334 -143q104 0 180 53q84 59 84 160q0 123 -168 190q-78 29 -157.5 58.5t-157.5 58.5q-168 94 -168 287q0 172 100.5 265t272.5 93h389l37 -285l-19 -10q-106 156 -321 156q-250 0 -250 -189q0 -104 170 -166q285 -102 317 -122 q170 -105 170 -314q0 -195 -184 -323v-2q-125 -80 -295 -80q-233 0 -420 176z" />
<glyph unicode="T" horiz-adv-x="991" d="M25 1178v143h919v-143h-373v-1012q0 -129 107 -150v-16h-299v1178h-354z" />
<glyph unicode="U" horiz-adv-x="1214" d="M41 1305v16h295v-844q0 -332 295 -332q150 0 231.5 91.5t81.5 244.5v838h158v-864q0 -211 -137 -342t-349 -131q-203 0 -340 133q-135 135 -135 340v723q0 102 -100 127z" />
<glyph unicode="V" horiz-adv-x="1128" d="M23 1321h372v-16q-104 -18 -104 -115q0 -23 10 -53l285 -803l352 987h154l-463 -1321h-137z" />
<glyph unicode="W" horiz-adv-x="1658" d="M41 1321h352v-16q-104 -20 -104 -121q0 -29 8 -56l207 -753l215 780q27 96 60.5 131t99.5 35h65l266 -946l265 948h139l-350 -1323h-146l-293 1022l-266 -1022h-147z" />
<glyph unicode="X" horiz-adv-x="1146" d="M27 0l442 672l-412 647h232l295 -471l317 473h174l-403 -608l448 -713h-116q-74 0 -109 25q-37 29 -90 116l-250 396l-227 -347q-23 -35 -23 -65q0 -41 33 -70.5t72 -38.5v-16h-383z" />
<glyph unicode="Y" horiz-adv-x="1054" d="M27 1321h114q78 0 117 -39q23 -20 70 -104l221 -402q31 57 105.5 192.5t193.5 352.5h168l-400 -727v-428q0 -113 109 -148v-18h-299v610z" />
<glyph unicode="Z" horiz-adv-x="1122" d="M31 0l704 1174h-641v147l953 -2l-705 -1172h150h280h152q123 0 149 107h19v-254h-1061z" />
<glyph unicode="[" horiz-adv-x="409" d="M23 -287v1850l364 -4v-144h-180v-1552h182v-148z" />
<glyph unicode="\" horiz-adv-x="940" d="M-20 1475l161 92l822 -1495l-158 -103z" />
<glyph unicode="]" horiz-adv-x="581" d="M106 -137h183v1552h-180v144l364 4v-1850l-367 2v148z" />
<glyph unicode="^" horiz-adv-x="1245" d="M98 764l451 727h147l451 -729l-201 2l-323 496l-316 -496h-209z" />
<glyph unicode="_" horiz-adv-x="933" d="M-43 -123h1022v-133h-1022v133z" />
<glyph unicode="`" horiz-adv-x="538" d="M27 1235l77 158l408 -242l-70 -117z" />
<glyph unicode="a" horiz-adv-x="880" d="M53 297q0 129 95.5 215t289.5 86q12 0 35 -1t45 -1q23 0 45.5 -1t34.5 -1v65q0 68 -48 112t-118 44h-82q-96 0 -186 -129l-23 6l45 246h283q123 0 213 -72q98 -76 98 -198v-480q0 -196 -227 -196h-2h-168q-143 0 -233 80q-96 84 -97 225zM250 301q0 -74 52 -126t126 -52 q10 0 35.5 -2t40.5 -2h3q87 0 87 65v269l-170 2q-76 0 -125 -40t-49 -114z" />
<glyph unicode="b" horiz-adv-x="991" d="M16 1415v17h293v-541q113 63 230 63q188 0 292 -143q97 -131 97 -324q0 -201 -84 -337q-100 -160 -291 -160h-223q-207 0 -207 198v1090q0 111 -107 137zM309 205q0 -51 13.5 -67.5t66.5 -16.5h129q98 0 154 102q51 94 51 254q0 328 -201 328h-2q-104 0 -211 -57v-543z " />
<glyph unicode="c" horiz-adv-x="819" d="M55 455q0 209 107 336q115 139 317 139h258v-250h-16q-14 66 -98 98q-70 29 -142 29q-119 0 -182 -125q-51 -96 -51 -227q0 -119 53 -215q66 -115 176 -115q92 0 252 78l55 -115q-168 -106 -350 -106q-174 0 -282 153q-96 139 -97 320z" />
<glyph unicode="d" horiz-adv-x="987" d="M53 487q0 193 97 324q104 143 292 143q117 0 230 -63v541h293v-17q-106 -27 -107 -137v-1090q0 -198 -205 -198h-2h-223q-188 0 -291 160q-84 137 -84 337zM258 477q0 -135 37 -227q53 -129 168 -129h129q51 0 65.5 16.5t14.5 67.5v543q-106 57 -213 57q-201 0 -201 -328 z" />
<glyph unicode="e" horiz-adv-x="868" d="M63 446q0 201 84 334q98 160 289 160q355 0 361 -485h-539v-25v-14q0 -114 61 -205q72 -109 193 -109q115 0 217 146l21 -10l-45 -238h-238q-201 0 -305 123q-98 115 -99 323zM266 586h338q-2 82 -39 147q-43 74 -123 74q-147 0 -176 -221z" />
<glyph unicode="f" horiz-adv-x="604" d="M20 782v148h95v82q0 197 104.5 308.5t300.5 111.5h115v-117h-129q-139 0 -180 -135q-20 -61 -21 -250h201v-148h-201v-614q0 -66 23.5 -98.5t85.5 -53.5v-16h-299v782h-95z" />
<glyph unicode="g" horiz-adv-x="1007" d="M90 457q0 180 105 323q117 158 290 158h234q88 0 139 -50t51 -136v-670q0 -231 -53 -334v2q-63 -125 -258 -180q-66 -18 -324 -55l-36 247l16 5q35 -90 133 -91q78 0 158 27q109 35 143 96q31 48 31 147v23v80q-117 -69 -252 -69h-4q-178 0 -283 153q-90 137 -90 324z M297 459q0 -123 43 -215q55 -119 166 -119q78 0 213 80v530q0 66 -72 66h-133q-113 0 -172 -121q-45 -90 -45 -221z" />
<glyph unicode="h" horiz-adv-x="974" d="M23 1415v17h292v-578q133 84 285 84q63 0 115.5 -22.5t90.5 -62.5t58.5 -94t20.5 -120v-639h-64q-129 0 -129 139v455q0 82 -33 133q-41 66 -114 66q-94 0 -228 -97v-696h-190v1282q0 59 -23.5 87t-80.5 46z" />
<glyph unicode="i" horiz-adv-x="489" d="M41 911v23h299v-934h-59q-133 0 -134 139v629q0 113 -106 143zM113 1217q0 51 35.5 87.5t89.5 36.5q51 0 87.5 -36.5t36.5 -87.5q0 -53 -36.5 -89t-87.5 -36q-53 0 -89 36t-36 89z" />
<glyph unicode="j" horiz-adv-x="495" d="M-102 -385q121 0 186 102q57 88 57 215v844q0 115 -106 135v19h297v-987q0 -217 -107 -336q-113 -125 -327 -125v133zM111 1219q0 51 36.5 87.5t88.5 36.5q53 0 88.5 -35.5t35.5 -88.5q0 -51 -36.5 -88t-87.5 -37t-88 36.5t-37 88.5z" />
<glyph unicode="k" horiz-adv-x="888" d="M-2 1415v17h299v-822l389 357l102 -99l-292 -270l381 -598h-226l-299 465l-55 -51v-414h-61q-129 0 -130 139v1139q0 109 -108 137z" />
<glyph unicode="l" horiz-adv-x="446" d="M119 141v1291h182v-1282q0 -106 107 -134v-16h-152q-137 0 -137 141z" />
<glyph unicode="m" horiz-adv-x="1452" d="M31 926v16h514q129 0 209 -74q135 80 284 80q117 0 205 -74q90 -74 90 -186v-688h-59q-133 0 -133 133v490q0 186 -158 186q-80 0 -158 -55q6 -27 6 -58v-696h-192v623q0 184 -174 184h-137v-807h-191v791q0 104 -106 135z" />
<glyph unicode="n" horiz-adv-x="978" d="M25 922v18h507q129 0 220 -59q102 -72 102 -195v-686h-59q-131 0 -131 133v481q0 184 -187 185h-155v-799h-191v791q0 98 -106 131z" />
<glyph unicode="o" horiz-adv-x="980" d="M59 481q0 195 115 332q117 137 311 137q193 0 312 -141q112 -131 112 -328q0 -211 -106 -348q-116 -149 -319 -149h-3q-201 0 -317 151q-104 139 -105 346zM262 481q0 -362 223 -362q222 0 222 360q0 313 -226 326h2q-221 -14 -221 -324z" />
<glyph unicode="p" horiz-adv-x="974" d="M94 -477v1235q0 86 55.5 133t143.5 47h233q180 0 291 -162q96 -146 96 -332q0 -188 -96 -319q-109 -141 -291 -148v-2h-8h-7q-119 0 -228 62v-361q0 -115 106 -135v-18h-295zM283 186q107 -65 195 -65h3q221 0 221 330q0 348 -198 348v2h-133q-88 0 -88 -60v-555z" />
<glyph unicode="q" horiz-adv-x="970" d="M61 444q0 186 97 332q111 162 291 162h233q88 0 143.5 -47t55.5 -133v-1088q0 -104 108 -129v-18h-297v514q-111 -62 -231 -62h-4h-8v2q-182 6 -291 148q-96 131 -97 319zM272 451q0 -330 222 -330h3q88 0 195 65v555q0 59 -88 60h-133v-2q-199 0 -199 -348z" />
<glyph unicode="r" horiz-adv-x="710" d="M82 0v662q0 276 301 276h244l43 -240l-23 -6q-88 141 -188 142q-188 0 -189 -170v-664h-188z" />
<glyph unicode="s" horiz-adv-x="796" d="M53 92l74 121q113 -88 235 -88q72 0 123 29q61 37 62 104q0 66 -121 115q-205 84 -227 98q-121 78 -121 201q0 135 100 205q86 61 228 61h237l43 -240l-22 -6q-27 39 -52.5 65.5t-55.5 42t-63.5 21.5t-80.5 6q-61 0 -106.5 -30.5t-45.5 -89.5q0 -70 123 -123 q213 -88 227 -99q123 -76 123 -213q0 -141 -119 -223q-104 -74 -249 -74q-160 0 -312 117z" />
<glyph unicode="t" horiz-adv-x="573" d="M59 793v139h99v270h188v-270h162v-139h-162v-643q0 -106 107 -134v-16h-166q-129 0 -129 131v662h-99z" />
<glyph unicode="u" horiz-adv-x="989" d="M102 246v684h191v-613q0 -92 65 -141q59 -43 154 -43h164v797h190v-789q0 -98 107 -131v-18h-549q-129 0 -219 59q-102 72 -103 195z" />
<glyph unicode="v" horiz-adv-x="942" d="M31 930h370v-21q-45 -4 -76.5 -33.5t-31.5 -74.5q0 -23 12 -51l203 -490l258 670h147l-346 -930h-155z" />
<glyph unicode="w" horiz-adv-x="1312" d="M18 930h351v-17q-104 -20 -105 -114q0 -39 68 -236q23 -61 43 -122.5t43 -125.5l141 506q20 80 70 99q31 10 129 10l203 -615l178 615h141l-264 -930h-150l-211 637l-180 -637h-151z" />
<glyph unicode="x" horiz-adv-x="886" d="M18 930h218l213 -316l215 316h192l-315 -451l325 -479h-129q-98 0 -149 76l-160 239l-102 -149q-16 -23 -17 -49q0 -82 101 -101v-16h-379l307 453z" />
<glyph unicode="y" horiz-adv-x="1003" d="M111 260v670h57q135 0 135 -142v-481q0 -182 203 -182q82 0 194 70v735h193v-830q0 -250 -53 -352v2q-72 -141 -305 -194q-115 -29 -117 -140l-17 -2l-63 254q74 10 121 19.5t69 15.5q115 33 154 104q27 47 27 224l2 4q-137 -55 -295 -55q-121 0 -213 79q-92 84 -92 201z " />
<glyph unicode="z" horiz-adv-x="882" d="M53 0l457 782h-438v146h735l-457 -783h318q113 0 143 107h16v-252h-774z" />
<glyph unicode="{" horiz-adv-x="604" d="M-18 557v170q203 53 202 231v259q0 133 78 229q115 139 293 196l68 -137q-252 -96 -250 -282l2 -293q4 -184 -172 -289q170 -102 170 -287v-295q-10 -96 76 -178q72 -65 174 -104l-68 -137q-186 59 -295 198q-76 94 -76 228v260q0 180 -202 231z" />
<glyph unicode="|" horiz-adv-x="452" d="M135 -86v1581l180 68v-1586z" />
<glyph unicode="}" horiz-adv-x="587" d="M-29 -221q106 41 174 102q86 82 76 178v295q0 184 170 287q-170 102 -170 287l2 295q2 186 -250 284l66 135q184 -59 297 -196q78 -98 76 -229l-2 -261q0 -178 202 -231l2 -168q-201 -53 -202 -231l-2 -260q0 -135 -76 -230q-109 -139 -295 -194z" />
<glyph unicode="~" horiz-adv-x="845" d="M78 561q119 113 254 113q18 0 117 -31l104 -33q51 0 135 66l80 -103q-119 -113 -252 -112v-2q-16 0 -117 33l-104 32q-51 0 -137 -67z" />
<glyph unicode="&#xa1;" horiz-adv-x="536" d="M143 1200q0 -53 37 -89t88 -36q53 0 89 37t36 90t-35.5 88t-89.5 35q-51 0 -88 -36t-37 -89zM174 -18v856q0 139 152 139h39v-995h-191z" />
<glyph unicode="&#xa2;" horiz-adv-x="780" d="M129 455q0 131 53 250q84 182 271 215v133h114v-123h244v-250h-16q-8 43 -62 80q-61 43 -166 47v-682q86 2 236 78l55 -115q-141 -90 -291 -104v-140h-114v142q-154 25 -242 172q-82 131 -82 297zM322 455q0 -135 65 -232q29 -40 66 -67v618q-41 -27 -70 -74 q-61 -100 -61 -245z" />
<glyph unicode="&#xa3;" horiz-adv-x="911" d="M35 0v20q94 27 94 170v684q0 446 393 447h189v-147h-185q-207 4 -207 -297v-150h299v-119h-299v-458h328q129 0 156 110h22v-260h-790z" />
<glyph unicode="&#xa4;" horiz-adv-x="1120" d="M6 639v121h76q31 238 162 389q147 174 372 174h369l37 -285l-18 -10q-115 164 -283 164q-371 0 -410 -432h420v-121h-426q4 -61 12 -119h416v-121h-385q84 -250 283 -249q102 0 176 30q66 25 154 92l75 -120q-201 -162 -438 -162q-172 0 -305 125q-121 111 -178 284h-107 v121h76q-4 31 -7 60.5t-3 58.5h-68z" />
<glyph unicode="&#xa5;" horiz-adv-x="1181" d="M55 365v141h408v104l-25 43h-377v142h297l-297 526h119q78 0 117 -39q10 -10 28.5 -36.5t41.5 -67.5l221 -402q35 63 108.5 198.5t190.5 346.5h168l-289 -526h332v-142h-410l-33 -59v-88h443v-144h-443v-215q0 -104 109 -129v-18h-299h-2v365h-408z" />
<glyph unicode="&#xa6;" horiz-adv-x="477" d="M164 -10v672h151v-676zM168 850v668h147v-668h-147z" />
<glyph unicode="&#xa7;" horiz-adv-x="2435" d="M86 598v8h252q61 0 115 -47q55 -45 55 -106q0 -102 -80 -131q117 -39 117 -152q0 -172 -211 -172h-133q-66 0 -66 68v473q0 47 -49 59zM221 78q0 -25 33 -25h72q116 0 116 113q0 111 -120 110h-101v-198zM221 332h74q113 -1 113 112q0 45 -32 75t-77 30h-78v-217z M295 752q0 10 207 569h78l202 -608h-166v8q47 10 48 51q0 10 -37 123h-211l-72 -195q-49 6 -49 52zM436 950h174l-82 246zM582 37q0 10 206 569h78l203 -608h-166v8q49 10 49 53q0 10 -37 123h-213l-71 -196q-49 6 -49 51zM725 238h172l-82 245zM831 713v608h23q63 0 64 -64 v-475h180q57 0 71 49h11v-118h-349zM1010 541v63l422 2v-67h-172v-465q0 -57 49 -68v-8h-138v541zM1190 1313v8h389v-104h-8q-12 49 -64 49h-182v-219h191v-54h-191v-198q0 -27 29 -27h225v-55h-279q-61 0 -61 61v477q0 47 -49 62zM1483 598v10h389v-106h-6q-14 49 -66 49 h-180v-217h188v-55h-188v-199q0 -25 27 -25h225v-57h-277q-63 0 -63 61v480q0 47 -49 59zM1616 713l205 309l-191 297h107l137 -217l145 219h80l-186 -281l207 -327h-54q-35 0 -55 16q-12 10 -37 49l-114 183q-115 -176 -115 -191q0 -39 47 -49v-8h-176zM1933 74l41 63 q78 -66 154 -65q47 0 84 25.5t37 72.5q0 57 -76 84q-37 16 -74 29.5t-71 27.5q-78 43 -78 131q0 78 46 122t126 44h178l16 -131l-8 -6q-53 72 -147 72q-115 0 -115 -86q0 -47 78 -76q66 -23 101.5 -38t43.5 -19q78 -48 78 -144q0 -90 -84 -149q-57 -37 -135 -37 q-109 0 -195 80z" />
<glyph unicode="&#xa8;" horiz-adv-x="862" d="M111 1163q0 51 35.5 87t86.5 36q53 0 89 -35t36 -88q0 -51 -35.5 -85t-86.5 -34l-3 -2q-49 0 -85.5 36t-36.5 85zM506 1161q0 51 34.5 88t86.5 37q51 0 88 -36t37 -87q0 -49 -36 -84t-85 -35h-2q-49 0 -86 34t-37 83z" />
<glyph unicode="&#xa9;" horiz-adv-x="1660" d="M74 768q0 328 215 561q219 233 540 234q326 0 545 -238q211 -229 211 -559t-211 -559q-219 -238 -545 -238v2q-324 0 -542 238q-213 231 -213 559zM258 770q0 -262 156 -444q164 -195 415 -195q254 0 418 195q154 184 154 442t-154 442q-162 197 -418 197 q-252 0 -415 -195q-156 -182 -156 -442zM420 745q0 195 98 336q111 160 297 160h285l26 -207l-12 -8q-82 119 -221 119q-160 0 -238 -117q-66 -102 -65 -268q0 -139 51 -240q66 -133 186 -133q119 0 240 90l55 -88q-145 -119 -319 -119q-166 0 -281 158q-102 145 -102 317z " />
<glyph unicode="&#xaa;" horiz-adv-x="831" d="M90 496v147h653v-147h-653zM156 938q2 94 66.5 151.5t162.5 57.5h152v45q0 49 -34 78.5t-81 29.5h-57q-66 0 -132 -90l-16 4l33 172h196q47 0 87 -14t69 -39.5t46.5 -60.5t17.5 -74v-336q0 -137 -162 -137h-117q-109 0 -168 61q-66 66 -63 152zM293 940q0 -51 37 -87 t88 -36h55q62 0 62 43v187l-119 2q-53 0 -88 -29t-35 -80z" />
<glyph unicode="&#xab;" horiz-adv-x="1030" d="M88 608l358 510l150 -96l-287 -414l287 -413l-150 -97zM438 608l357 510l149 -96l-285 -414l285 -413l-149 -97z" />
<glyph unicode="&#xac;" horiz-adv-x="1064" d="M113 745v142h837v-488h-139v346h-698z" />
<glyph unicode="&#xad;" d="M72 469v166h420v-166h-420z" />
<glyph unicode="&#xae;" horiz-adv-x="1638" d="M63 741q0 330 211 559q219 238 545 238t543 -240q213 -231 213 -559t-213 -559q-219 -238 -543 -237q-326 0 -545 237q-211 229 -211 561zM225 741q0 -266 160 -460q170 -203 434 -203t432 203q162 188 162 458t-162 459q-168 203 -432 203t-434 -201 q-160 -190 -160 -459zM475 1212v13h383q115 0 197 -78q82 -76 82 -191q0 -104 -65.5 -176.5t-168.5 -81.5l250 -438h-166l-246 436h-51v-438h-37q-102 0 -102 107v749q0 84 -76 98zM690 803q78 -2 125 -2h64q37 0 75 45q43 47 43 115q0 61 -46 108t-107 47h-154v-313z" />
<glyph unicode="&#xaf;" horiz-adv-x="677" d="M12 1044v136h654l-2 -138z" />
<glyph unicode="&#xb0;" horiz-adv-x="780" d="M182 1255q0 43 16.5 81t45 67t66.5 45t81 16t81 -16t65.5 -46t44 -68t16.5 -81t-16.5 -80.5t-45 -67.5t-66.5 -46.5t-81 -16.5t-81 16.5t-65.5 46.5t-44 68.5t-16.5 81.5zM287 1251q0 -41 30.5 -70.5t71.5 -29.5t73 29.5t32 70.5q0 39 -26 70t-65 35v4q-49 0 -82.5 -30 t-33.5 -79z" />
<glyph unicode="&#xb1;" horiz-adv-x="903" d="M66 135v141h770v-141h-770zM68 760v149h305v351h149v-351h314v-149h-314l-2 -350h-147v350h-305z" />
<glyph unicode="&#xb2;" horiz-adv-x="870" d="M156 590v80q100 113 184 214t154 193q66 88 65 158q0 117 -137 117q-182 0 -250 -92l-12 6l26 164h271q106 0 170.5 -58.5t64.5 -152.5q0 -100 -119 -263q-45 -61 -101 -131.5t-122 -148.5l365 -2v-84h-559z" />
<glyph unicode="&#xb3;" horiz-adv-x="831" d="M106 756l105 43q68 -123 186 -123q70 0 123 46t53 116q0 100 -63.5 139t-204.5 39v84q213 4 213 131q0 111 -160 110h-178v93l195 -2q295 10 295 -197q0 -100 -133 -143q76 -18 127 -80q65 -72 61 -168q-2 -121 -102 -199q-92 -68 -224 -67q-197 0 -293 178z" />
<glyph unicode="&#xb4;" horiz-adv-x="649" d="M82 1147l70 -117l415 201l-78 158z" />
<glyph unicode="&#xb6;" horiz-adv-x="1019" d="M90 946q0 154 107 260q111 111 258 113l-15 -14q16 16 488 16v-1563l-189 66v1362h-110v-1428l-189 66v747q-150 10 -250 117q-100 106 -100 258z" />
<glyph unicode="&#xb7;" horiz-adv-x="466" d="M115 557q0 49 33.5 87t82.5 38t85 -37t36 -88q0 -49 -34.5 -84t-84.5 -35h3q-51 0 -86 34t-35 85z" />
<glyph unicode="&#xb8;" horiz-adv-x="499" d="M158 -449l49 107q82 -35 133 -35q27 0 48.5 17.5t21.5 42.5q0 53 -76 53h-82v211h135v-94q18 -4 25 -7q143 -21 143 -168q0 -41 -17.5 -74.5t-47 -57t-68.5 -37t-82 -13.5q-78 0 -182 55z" />
<glyph unicode="&#xb9;" horiz-adv-x="718" d="M178 1227v106l148 113h139v-721q0 -92 76 -107v-12h-211v735z" />
<glyph unicode="&#xba;" horiz-adv-x="884" d="M115 494v147h655v-147h-655zM152 1071q0 137 81 232q84 96 218 96q135 0 215 -96q82 -95 82 -232q0 -150 -76 -244q-82 -104 -223 -104t-224 106q-74 96 -73 242zM295 1071q0 -254 156 -254q155 0 155 252q0 217 -157 227q-154 -8 -154 -225z" />
<glyph unicode="&#xbb;" horiz-adv-x="1044" d="M94 195l287 413l-287 414l152 96l356 -510l-356 -510zM444 195l285 413l-285 414l150 96l356 -510l-356 -510z" />
<glyph unicode="&#xbc;" horiz-adv-x="1417" d="M100 1227v106l148 113h139v-721q0 -92 76 -107v-12h-209v735zM172 -35l975 1526h125l-971 -1526h-129zM784 279v83l279 400q41 53 49 61q31 25 76 25l33 -2v-481h96v-86h-96v-279h-197q-2 14 0 14q72 25 72 95v170h-312zM909 365h187v262z" />
<glyph unicode="&#xbd;" horiz-adv-x="1607" d="M90 1227v106l148 113h141v-721q0 -92 76 -107v-12h-211v735zM164 -35l973 1526h127l-973 -1526h-127zM956 0v80q100 113 184.5 214t153.5 193q68 86 68 158q0 117 -137 117q-184 0 -250 -92l-14 6l26 164h273q104 0 168.5 -58.5t64.5 -152.5q0 -100 -119 -262 q-45 -61 -101 -132t-122 -149l365 -2v-84h-560z" />
<glyph unicode="&#xbe;" horiz-adv-x="1540" d="M70 756l106 43q68 -123 184 -123q72 0 124.5 46t52.5 116q0 100 -63.5 139t-205.5 39v84q213 4 213 131q0 111 -159 110h-179v93l195 -2q295 10 295 -197q0 -100 -133 -143q76 -18 127 -80q65 -72 61 -168q-4 -123 -102 -199q-92 -68 -224 -67q-197 0 -292 178zM326 -35 l972 1526h127l-972 -1526h-127zM938 279v83l279 400q41 53 49 61q29 25 75 25l33 -2v-481h96v-86h-96v-279h-196q-2 14 32 27q37 12 37 82l2 170h-311zM1063 365h186v262z" />
<glyph unicode="&#xbf;" horiz-adv-x="815" d="M41 -12l278 -2q186 0 314 96q141 105 141 285q0 127 -90 227q-88 100 -219 113l-139 12v258h-39q-152 0 -152 -139v-254q201 0 275 -27q147 -49 147 -205q0 -143 -106 -198q-78 -41 -232 -41h-41q-23 0 -51 2q-33 2 -55 2h-31v-129zM104 1200q0 -53 36 -89t89 -36t89 37 t36 90t-35.5 88t-89.5 35q-53 0 -89 -36t-36 -89z" />
<glyph unicode="&#xc0;" horiz-adv-x="1116" d="M27 82q0 27 12 59l440 1180h168l443 -1321h-363v16q104 23 104 113q0 41 -32 133q-12 35 -24.5 67.5t-22.5 67.5h-461l-156 -424q-45 4 -76.5 34t-31.5 75zM303 1591l78 158l407 -242l-69 -116zM338 518h377l-180 535z" />
<glyph unicode="&#xc1;" horiz-adv-x="1116" d="M27 82q0 27 12 59l440 1180h168l443 -1321h-363v16q104 23 104 113q0 41 -32 133q-12 35 -24.5 67.5t-22.5 67.5h-461l-156 -424q-45 4 -76.5 34t-31.5 75zM309 1503l70 -117l416 201l-78 158zM338 518h377l-180 535z" />
<glyph unicode="&#xc2;" horiz-adv-x="1060" d="M0 82q0 23 10 59l441 1180h167l443 -1321h-363v16q106 20 107 113q0 41 -33 133l-49 135h-461l-156 -424q-45 4 -75.5 34t-30.5 75zM178 1505l352 236l355 -236l-66 -102l-289 188l-280 -186zM309 518h377l-180 535z" />
<glyph unicode="&#xc3;" horiz-adv-x="1058" d="M-2 82q0 27 12 59l441 1180h167l443 -1321h-363v16q104 23 105 113q0 41 -33 133q-10 35 -22.5 67.5t-24.5 67.5h-461l-156 -424q-45 4 -76.5 34t-31.5 75zM184 1497q119 119 252 119q12 0 117 -33l109 -33q55 0 137 70l80 -111q-119 -119 -254 -118h2q-10 0 -226 65 q-55 0 -137 -70zM309 518h377l-180 535z" />
<glyph unicode="&#xc4;" horiz-adv-x="1060" d="M0 82q0 23 10 59l441 1180h167l443 -1321h-363v16q106 20 107 113q0 41 -33 133l-49 135h-461l-156 -424q-45 4 -75.5 34t-30.5 75zM209 1513q0 53 36 91t87 38q53 0 90 -37.5t37 -88.5q0 -53 -36 -90t-89 -37v-3q-51 0 -88 38t-37 89zM309 518h377l-180 535zM606 1516 q0 53 35 91t88 38t89 -38t36 -91q0 -51 -35 -88t-88 -37v-2q-51 0 -88 36.5t-37 90.5z" />
<glyph unicode="&#xc5;" horiz-adv-x="1060" d="M0 82q0 23 10 59l441 1180h167l443 -1321h-363v16q106 20 107 113q0 35 -35 133q-10 35 -22.5 67.5t-24.5 67.5h-461l-156 -424q-45 4 -75.5 34t-30.5 75zM309 518h377l-180 535zM311 1579q0 88 64 152q66 66 149 65q45 0 84 -17.5t66.5 -46t44 -68.5t16.5 -83 q0 -92 -61.5 -154.5t-153.5 -62.5q-43 0 -82 17.5t-66.5 46t-44 68.5t-16.5 83zM432 1581q0 -37 26.5 -64.5t61.5 -27.5q39 0 65.5 27.5t26.5 64.5t-24.5 64.5t-61.5 27.5v-2q-37 0 -65.5 -26.5t-28.5 -63.5z" />
<glyph unicode="&#xc6;" horiz-adv-x="1554" d="M6 0l809 1321h731v-229l-16 -2q-18 109 -146 108h-393v-473h416v-117h-416v-420q0 -45 12.5 -55t51.5 -12h491v-121h-596q-145 0 -145 137v260h-365q-59 -100 -120.5 -198.5t-124.5 -198.5h-189zM524 535h283v471z" />
<glyph unicode="&#xc7;" horiz-adv-x="1042" d="M37 641q0 266 133 461q152 219 408 219h391l37 -285l-19 -10q-115 164 -303 164q-219 0 -328 -164q-88 -137 -88 -364q0 -188 70 -330q90 -182 256 -182q100 0 168 26q59 23 162 96l75 -120q-111 -86 -204 -123q-98 -39 -234 -39q-227 0 -385 215q-139 199 -139 436z M416 -449l49 107q82 -35 133 -35q27 0 48.5 17.5t21.5 42.5q0 53 -76 53h-82v211h135v-94q18 -4 25 -7q143 -21 143 -168q0 -41 -17.5 -74.5t-47 -57t-68.5 -37t-82 -13.5q-78 0 -182 55z" />
<glyph unicode="&#xc8;" horiz-adv-x="876" d="M14 1305v18h848v-229h-16q-31 106 -139 106h-396v-473h412v-119h-412v-432q0 -55 60 -55h491v-121h-604q-137 0 -137 133v1038q0 102 -107 134zM231 1599l78 158l408 -241l-70 -117z" />
<glyph unicode="&#xc9;" horiz-adv-x="880" d="M16 1305v18h848v-229h-16q-31 106 -139 106h-396v-473h412v-119h-412v-432q0 -55 60 -55h491v-121h-604q-137 0 -137 133v1038q0 102 -107 134zM238 1507l69 -116l416 200l-78 158z" />
<glyph unicode="&#xca;" horiz-adv-x="911" d="M31 1305v18h848v-229h-17q-27 106 -139 106h-395v-473h411v-119h-411v-432q0 -55 59 -55h492v-121h-605q-137 0 -137 133v1038q0 102 -106 134zM145 1505l353 236l354 -236l-66 -102l-288 188l-281 -186z" />
<glyph unicode="&#xcb;" horiz-adv-x="901" d="M27 1305v18h847v-229h-16q-31 106 -139 106h-395v-473h411v-119h-411v-432q0 -55 59 -55h491v-121h-604q-137 0 -137 133v1038q0 102 -106 134zM186 1513q0 51 35 90t86 39t89 -37.5t38 -88.5q0 -53 -36 -90t-89 -37v-3q-51 0 -87 38t-36 89zM580 1516q0 53 34.5 91 t87.5 38t89 -38t36 -91q0 -51 -35.5 -88t-86.5 -37v-2q-51 0 -88 36.5t-37 90.5z" />
<glyph unicode="&#xcc;" horiz-adv-x="471" d="M-6 1591l78 158l407 -242l-69 -116zM68 1305v16h297v-1325h-68q-125 0 -125 139v1045q0 106 -104 125z" />
<glyph unicode="&#xcd;" horiz-adv-x="450" d="M-16 1501l69 -117l416 201l-78 158zM43 1305v16h297v-1325h-68q-125 0 -125 139v1045q0 106 -104 125z" />
<glyph unicode="&#xce;" horiz-adv-x="518" d="M-94 1505l352 236l354 -236l-65 -102l-289 188l-281 -186zM66 1305v16h296v-1325h-67q-125 0 -125 139v1045q0 106 -104 125z" />
<glyph unicode="&#xcf;" horiz-adv-x="509" d="M-63 1513q0 53 34.5 91t85.5 38q53 0 90 -38t37 -91q0 -51 -35.5 -87.5t-87.5 -36.5v-3q-51 0 -87.5 38t-36.5 89zM55 1305v16h297v-1325h-67q-125 0 -125 139v1045q0 106 -105 125zM328 1516q0 53 34.5 91t88.5 38q53 0 87.5 -38t34.5 -91q0 -51 -35.5 -88t-86.5 -37 l2 -2q-51 0 -88 36.5t-37 90.5z" />
<glyph unicode="&#xd0;" horiz-adv-x="1138" d="M35 604v156h117v407q0 111 -107 138v16h516q254 0 397 -191q144 -188 144 -452q0 -328 -134 -503t-380 -175h-287q-150 0 -149 135v469h-117zM346 178q0 -55 70 -55h145q182 0 268 162q62 115 62 379q0 535 -408 534h-137v-438h277v-156h-277v-426z" />
<glyph unicode="&#xd1;" horiz-adv-x="1175" d="M82 0v18q109 29 108 160v975q0 125 -106 152v16h268l596 -1016v1016h146v-1321h-84q-92 0 -176 139l-494 856v-995h-258zM311 1497q117 119 250 119q18 0 119 -33l104 -33q55 0 138 70l77 -111q-117 -119 -249 -118q-10 0 -226 65q-55 0 -137 -70z" />
<glyph unicode="&#xd2;" horiz-adv-x="1257" d="M57 682q0 268 148 461q164 209 422 209q262 0 424 -209q147 -193 147 -463t-145 -475q-162 -223 -426 -223q-258 0 -422 225q-147 203 -148 475zM270 682q0 -195 82 -350q102 -190 277 -191q178 0 276 193q80 153 80 350q0 190 -82 336q-102 176 -276 176h2 q-174 0 -277 -176q-82 -145 -82 -338zM389 1602l78 157l407 -241l-69 -117z" />
<glyph unicode="&#xd3;" horiz-adv-x="1257" d="M57 682q0 268 148 461q164 209 422 209q262 0 424 -209q147 -193 147 -463t-145 -475q-162 -223 -426 -223q-258 0 -422 225q-147 203 -148 475zM270 682q0 -195 82 -350q102 -190 277 -191q178 0 276 193q80 153 80 350q0 190 -82 336q-102 176 -276 176h2 q-174 0 -277 -176q-82 -145 -82 -338zM358 1524l70 -117l416 201l-78 157z" />
<glyph unicode="&#xd4;" horiz-adv-x="1257" d="M57 682q0 268 148 461q164 209 422 209q262 0 424 -209q147 -193 147 -461q0 -270 -145 -475q-164 -225 -426 -225q-260 0 -424 225q-145 205 -146 475zM270 682q0 -195 82 -350q98 -190 277 -191q178 0 276 193q80 153 80 350q0 190 -82 336q-102 176 -276 176h2 q-174 0 -277 -176q-82 -145 -82 -338zM272 1505l353 236l354 -236l-66 -102l-288 188l-281 -186z" />
<glyph unicode="&#xd5;" horiz-adv-x="1255" d="M57 680q0 266 150 459q162 211 420 211q262 0 424 -209q147 -193 147 -461q0 -270 -145 -475q-162 -223 -426 -223q-260 0 -424 225q-145 201 -146 473zM272 680q0 -227 103 -385q115 -170 254 -170q172 0 272 203q82 162 82 352q0 184 -84 336q-102 182 -272 182 q-168 0 -271 -182q-84 -152 -84 -336zM285 1497q119 119 252 119q12 0 116 -33l109 -33q57 0 135 70l80 -111q-119 -119 -252 -118q-10 0 -225 65q-55 0 -138 -70z" />
<glyph unicode="&#xd6;" horiz-adv-x="1255" d="M57 680q0 266 150 459q162 211 420 211q262 0 424 -209q147 -193 147 -461q0 -270 -145 -475q-162 -223 -426 -223q-260 0 -424 225q-145 201 -146 473zM272 680q0 -227 103 -385q115 -170 254 -170q172 0 272 203q82 162 82 352q0 184 -84 336q-102 182 -272 182 q-168 0 -271 -182q-84 -152 -84 -336zM301 1513q0 53 37 91t88 38t89 -37.5t38 -88.5q0 -53 -37 -90t-90 -37v-3q-51 0 -88 38t-37 89zM700 1516q0 53 35 91t86 38q53 0 90 -38t37 -91q0 -51 -37 -88t-88 -37v-2q-51 0 -87 36.5t-36 90.5z" />
<glyph unicode="&#xd7;" horiz-adv-x="1019" d="M92 948l98 101l322 -322l317 317l101 -98l-318 -317l314 -316l-99 -100l-315 315l-317 -315l-99 98l316 318z" />
<glyph unicode="&#xd8;" horiz-adv-x="1255" d="M57 682q0 268 148 459q164 209 422 209q78 0 123 -13l73 252h187l-95 -323q135 -86 213 -256q70 -152 70 -330q0 -270 -145 -475q-164 -225 -426 -225v2q-29 0 -52.5 2t-44.5 6l-88 -281h-178l101 344q-147 94 -230 275q-78 172 -78 354zM270 682q0 -287 148 -444 l284 948q-41 10 -75 10h2q-174 0 -277 -176q-82 -145 -82 -338zM578 145q16 -2 28 -3t23 -1q178 0 276 193q80 153 80 350q0 246 -125 397z" />
<glyph unicode="&#xd9;" horiz-adv-x="1191" d="M66 1305v16h294v-844q0 -334 295 -332q150 0 232 91.5t82 244.5v838h157v-864q0 -209 -139 -342q-141 -133 -346 -131q-209 4 -342 133q-133 133 -133 340v723q0 102 -100 127zM362 1593l78 158l408 -242l-70 -116z" />
<glyph unicode="&#xda;" horiz-adv-x="1187" d="M63 1305v16h295v-844q0 -334 295 -332q150 0 232 91.5t82 244.5v838h157v-864q0 -211 -137 -342q-141 -133 -348 -131q-209 4 -342 133q-133 133 -133 340v723q0 102 -101 127zM393 1509l70 -116l416 200l-78 158z" />
<glyph unicode="&#xdb;" horiz-adv-x="1193" d="M68 1305v16h294v-844q0 -334 295 -332q150 0 232 91.5t82 244.5v838h157v-864q0 -209 -139 -342q-141 -133 -346 -131q-209 4 -342 133q-133 133 -133 340v723q0 102 -100 127zM287 1505l352 236l354 -236l-65 -102l-289 188l-281 -186z" />
<glyph unicode="&#xdc;" horiz-adv-x="1193" d="M68 1305v16h294v-844q0 -334 295 -332q150 0 232 91.5t82 244.5v838h157v-864q0 -209 -139 -342q-141 -133 -346 -131q-209 4 -342 133q-133 133 -133 340v723q0 102 -100 127zM336 1513q0 53 35 91t88 38q51 0 89 -37.5t38 -88.5q0 -53 -37 -90t-88 -37v-3q-51 0 -88 38 t-37 89zM733 1516q0 53 34 91t87 38q51 0 88 -38t37 -91q0 -51 -36 -88t-87 -37v-2q-53 0 -88 36.5t-35 90.5z" />
<glyph unicode="&#xdd;" horiz-adv-x="997" d="M4 1321h115q78 0 117 -39q23 -20 69 -104l221 -402q33 57 107 192.5t192 352.5h168l-399 -727v-428q0 -113 108 -148v-18h-299v610zM258 1507l70 -116l415 200l-77 158z" />
<glyph unicode="&#xde;" horiz-adv-x="972" d="M23 1303v20h299v-266h231q158 0 268 -105q111 -100 111 -260q0 -158 -101 -258q-102 -102 -256 -102h-253v-336h-56q-135 0 -135 139v1024q0 119 -108 144zM322 477h208q98 0 155.5 60.5t57.5 158.5q0 84 -63 148q-63 63 -148 63h-210v-430z" />
<glyph unicode="&#xdf;" horiz-adv-x="1079" d="M100 -274v1269q0 166 111 252q102 80 270 80q348 0 348 -280q0 -31 -10 -65t-27.5 -65.5t-41 -58.5t-50.5 -45q-39 -25 -38 -37q0 -20 59 -39q260 -76 260 -346q0 -162 -113 -274q-111 -113 -270 -135q-49 -6 -96 -7q-61 0 -129 25v160q84 -31 139 -31q109 0 182 74 q76 74 76 182q0 94 -88 162q-41 27 -80 51.5t-80 50.5q-88 63 -88 146q0 86 78 120q123 53 123 134q0 119 -143 118q-102 0 -150 -34q-53 -41 -53 -138v-1104q0 -129 106 -149v-16h-295z" />
<glyph unicode="&#xe0;" horiz-adv-x="882" d="M78 297q4 137 98 219q94 78 230 78h217v65q0 70 -49.5 113t-116.5 43h-82q-96 0 -187 -129l-22 6l45 246h283q131 0 219 -80q92 -80 92 -190v-480q0 -197 -230 -196h-167q-154 0 -240 88q-94 90 -90 217zM199 1243l77 158l408 -242l-70 -117zM274 301q0 -74 52.5 -126 t126.5 -52h79q47 0 62 8q24 12 24 53v269l-169 2q-74 0 -124.5 -41t-50.5 -113z" />
<glyph unicode="&#xe1;" horiz-adv-x="884" d="M78 297q4 137 98 219q94 78 230 78h217v65q0 70 -49.5 113t-116.5 43h-82q-94 0 -187 -129l-22 6l45 246h283q133 0 221 -80q90 -80 90 -190v-480q0 -197 -230 -196h-167q-154 0 -240 88q-94 90 -90 217zM219 1126l70 -116l416 200l-78 158zM274 301q0 -37 14.5 -69.5 t39 -56t56.5 -38t69 -14.5h79q47 0 66.5 10t19.5 51v269l-169 2q-76 0 -121 -39q-53 -43 -54 -115z" />
<glyph unicode="&#xe2;" horiz-adv-x="886" d="M70 297q4 137 98 219q90 78 229 78h217v65q0 70 -49 113t-116 43h-82q-96 0 -187 -129l-22 6l45 246h282q131 0 220 -80q92 -80 92 -190v-480q0 -197 -230 -196h-168q-156 0 -243 88q-90 90 -86 217zM113 1116l352 236l354 -236l-65 -102l-289 188l-281 -186zM266 301 q0 -74 52.5 -126t125.5 -52h80q47 0 62 8q24 12 24 53v269l-170 2q-74 0 -124 -41t-50 -113z" />
<glyph unicode="&#xe3;" horiz-adv-x="880" d="M76 297q4 137 98 219q94 78 229 78h218v65q0 70 -49.5 113t-116.5 43h-82q-96 0 -187 -129l-22 6l45 246h283q133 0 221 -80q90 -80 90 -190v-480q0 -197 -230 -196h-167q-154 0 -240 88q-94 90 -90 217zM119 1133q115 117 248 120q23 0 118 -32l105 -35q55 0 137 69 l78 -110q-117 -119 -250 -119l-117 35l-106 33q-57 0 -135 -70zM272 301q0 -74 52.5 -126t126.5 -52h79q47 0 62 8q24 12 24 53v269l-170 2q-74 0 -124 -41t-50 -113z" />
<glyph unicode="&#xe4;" horiz-adv-x="882" d="M78 297q4 137 98 219q94 78 230 78h217v65q0 70 -49.5 113t-116.5 43h-82q-96 0 -187 -129l-22 6l45 246h283q131 0 219 -80q92 -80 92 -190v-480q0 -197 -230 -196h-167q-156 0 -244 88q-90 90 -86 217zM150 1155q0 53 33.5 91t86.5 38q51 0 89 -38t38 -91 q0 -51 -36.5 -88t-88.5 -37l2 -2q-51 0 -87.5 38t-36.5 89zM274 301q0 -74 52.5 -126t126.5 -52h79q47 0 62 8q24 12 24 53v269l-169 2q-74 0 -124.5 -41t-50.5 -113zM543 1157q0 53 34.5 91t88.5 38q51 0 88 -38t37 -91q0 -51 -36 -88t-87 -37v-2q-53 0 -89 37t-36 90z" />
<glyph unicode="&#xe5;" horiz-adv-x="876" d="M74 297q4 137 98 219q94 78 229 78h217v65q0 70 -49 113t-116 43h-82q-94 0 -187 -129l-22 6l45 246h282q133 0 222 -80q90 -80 90 -190v-480q0 -197 -230 -196h-168q-154 0 -239 88q-94 90 -90 217zM256 1247q0 43 17.5 83t46 70t68.5 47t83 17t81 -17t65.5 -46t44 -69 t16.5 -83q0 -92 -60.5 -154.5t-152.5 -62.5q-43 0 -81 17.5t-66.5 46t-45 68.5t-16.5 83zM270 301q0 -37 14.5 -69.5t39 -56t56.5 -38t69 -14.5h79q47 0 66.5 10t19.5 51v269l-170 2q-76 0 -120 -39q-53 -43 -54 -115zM379 1245q0 -37 27.5 -64.5t62.5 -27.5q37 0 63.5 27.5 t26.5 64.5t-24.5 64.5t-61.5 27.5t-65.5 -26.5t-28.5 -65.5z" />
<glyph unicode="&#xe6;" horiz-adv-x="1419" d="M61 297q4 137 99 219q94 78 229 78h217v65q0 70 -49 113t-117 43h-82q-94 0 -186 -129l-22 6l45 246h282q164 4 262 -121q96 117 258 117q355 0 361 -485h-539q-6 -150 64 -244q80 -109 190 -109q115 0 217 146l21 -11l-45 -237h-238q-162 0 -262 82q-47 -84 -207 -84 h-168q-154 0 -239 88q-94 90 -91 217zM258 301q0 -74 52 -126t126 -52h80q47 0 66.5 10t19.5 51v269l-170 2q-74 0 -124 -41t-50 -113zM827 580h338q-4 88 -39 147q-43 74 -122 74q-147 0 -177 -221z" />
<glyph unicode="&#xe7;" horiz-adv-x="819" d="M45 455q0 131 53 250q53 111 150 172q88 53 221 53h258v-250h-16q-10 47 -66 82q-70 45 -174 45q-106 0 -172 -105q-61 -104 -61 -247q0 -119 53 -215q63 -111 176 -115q88 -2 252 78l55 -115q-168 -106 -350 -106q-174 0 -283 153q-96 139 -96 320zM276 -449l50 107 q82 -35 133 -35q27 0 48 17.5t21 42.5q0 53 -75 53h-82v211h135v-94q18 -4 24 -7q144 -21 144 -168q0 -41 -17.5 -74.5t-47 -57t-68.5 -37t-82 -13.5q-78 0 -183 55z" />
<glyph unicode="&#xe8;" horiz-adv-x="876" d="M72 446q0 203 84 336q98 158 288 158q355 0 361 -485h-539q-6 -150 64 -244q80 -109 190 -109q115 0 217 146l21 -10l-45 -238h-238q-143 0 -239 66q-164 109 -164 380zM188 1231l78 158l408 -242l-70 -117zM274 586h338q-2 82 -39 147q-43 74 -122 74q-147 0 -177 -221z " />
<glyph unicode="&#xe9;" horiz-adv-x="880" d="M74 446q0 203 84 336q98 158 288 158q355 0 361 -485h-539q-6 -150 64 -244q80 -109 190 -109q115 0 217 146l21 -10l-45 -238h-238q-143 0 -239 66q-164 109 -164 380zM223 1147l70 -117l416 201l-78 158zM276 586h338q-2 82 -39 147q-43 74 -122 74q-147 0 -177 -221z " />
<glyph unicode="&#xea;" horiz-adv-x="880" d="M74 446q0 203 84 336q98 158 288 158q355 0 361 -485h-539q-6 -150 64 -244q80 -109 190 -109q115 0 217 146l21 -10l-45 -238h-238q-143 0 -239 66q-164 109 -164 380zM94 1116l352 236l355 -236l-66 -102l-289 188l-280 -186zM276 586h338q-2 82 -39 147 q-43 74 -122 74q-147 0 -177 -221z" />
<glyph unicode="&#xeb;" horiz-adv-x="860" d="M63 446q0 203 84 336q98 158 289 158q355 0 361 -485h-539q-6 -150 64 -244q80 -109 190 -109q115 0 217 146l21 -10l-45 -238h-238q-143 0 -240 66q-164 109 -164 380zM113 1155q0 53 33.5 91t86.5 38q51 0 89 -38t38 -91q0 -51 -36.5 -88t-87.5 -37h2q-51 0 -88 37 t-37 88zM266 586h338q-2 82 -39 147q-45 74 -123 74q-147 0 -176 -221zM506 1157q0 53 36 91t89 38q51 0 87 -38t36 -91q0 -51 -36 -88t-87 -37v-2q-53 0 -89 37t-36 90z" />
<glyph unicode="&#xec;" horiz-adv-x="509" d="M12 1237l78 158l408 -242l-70 -117zM74 911v23h299v-934h-60q-131 0 -131 139l-2 629q0 113 -106 143z" />
<glyph unicode="&#xed;" horiz-adv-x="634" d="M74 1147l69 -117l416 201l-78 158zM133 911v23h299v-934h-59q-131 0 -131 139v629q0 113 -109 143z" />
<glyph unicode="&#xee;" d="M-66 1116l353 236l354 -236l-66 -102l-288 188l-281 -186zM123 911v23h299v-934h-60q-131 0 -131 139l-2 629q0 113 -106 143z" />
<glyph unicode="&#xef;" horiz-adv-x="569" d="M-35 1155q0 53 34 91t87 38q51 0 90 -38t39 -91q0 -51 -37 -88t-88 -37v-2q-53 0 -89 38t-36 89zM109 911v23h299v-934h-60q-129 0 -133 139v629q0 113 -106 143zM358 1157q0 53 35 91t88 38q51 0 88 -38t37 -91q0 -51 -35.5 -88t-87.5 -37v-2q-53 0 -89 37t-36 90z" />
<glyph unicode="&#xf0;" horiz-adv-x="1085" d="M100 485q0 217 113 351q121 145 330 145q86 0 166 -29q-39 74 -101 127l-47 -61l-102 69l45 60q-66 41 -119 41q-125 0 -162 -66l-14 6l59 242q217 -27 330 -90l57 68l99 -72l-56 -66q287 -239 287 -675q0 -236 -100 -385q-117 -172 -340 -173q-211 0 -332 152 q-113 137 -113 356zM283 485q0 -141 59 -237q70 -113 203 -113q174 0 229 193q27 91 27 204q0 121 -35 232q-119 63 -219 63q-133 0 -205 -108q-59 -94 -59 -234z" />
<glyph unicode="&#xf1;" horiz-adv-x="911" d="M41 922v18h508q129 0 219 -59q102 -72 102 -195v-686h-59q-131 0 -131 133v481q0 188 -195 185q-55 -2 -147 0v-799h-191v791q0 98 -106 131zM145 1133q115 117 250 120q23 0 119 -32l104 -35q55 0 138 69l78 -110q-117 -119 -252 -119h2l-117 35l-107 33q-55 0 -137 -70 z" />
<glyph unicode="&#xf2;" horiz-adv-x="980" d="M66 483q0 195 114 332q117 137 312 137q190 0 311 -139q112 -131 112 -328q0 -211 -106 -350q-121 -154 -322 -151v-2q-205 4 -317 153q-104 139 -104 348zM244 1221l78 157l407 -241l-70 -117zM266 481q0 -141 43 -237q59 -127 183 -127q221 -1 221 364q0 313 -226 326 l2 2q-223 -14 -223 -328z" />
<glyph unicode="&#xf3;" horiz-adv-x="972" d="M61 483q0 195 115 332q117 137 311 137q190 0 312 -139q112 -131 112 -328q0 -211 -106 -350q-121 -154 -322 -151v-2q-203 2 -319 153q-102 139 -103 348zM231 1147l70 -117l416 201l-78 158zM262 481q0 -141 43 -237q59 -127 182 -127q222 -1 222 364q0 313 -226 326 l2 2q-223 -14 -223 -328z" />
<glyph unicode="&#xf4;" horiz-adv-x="968" d="M59 483q0 199 113 330q121 141 313 141q193 0 312 -141q112 -131 112 -328q0 -211 -106 -350q-121 -154 -322 -151v-2q-205 4 -317 153q-104 139 -105 348zM127 1143l362 262l381 -262l-92 -117l-289 162l-280 -162zM260 481q0 -141 43 -237q59 -127 182 -127 q222 -1 222 364q0 313 -226 326l2 2q-223 -14 -223 -328z" />
<glyph unicode="&#xf5;" horiz-adv-x="972" d="M61 481q0 199 113 330q121 141 313 141q193 0 312 -141q112 -131 112 -330q0 -211 -106 -348q-117 -150 -322 -149q-201 0 -317 151q-104 139 -105 346zM152 1133q115 117 249 120q23 0 119 -32l105 -35q55 0 137 69l78 -110q-117 -119 -250 -119l-117 35l-106 33 q-55 0 -138 -70zM262 483q0 -141 43 -237q59 -127 182 -127q222 -1 222 364q0 313 -226 326l2 -2q-223 -14 -223 -324z" />
<glyph unicode="&#xf6;" horiz-adv-x="962" d="M57 479q0 199 113 330q121 141 313 141q193 0 312 -141q112 -131 112 -328q0 -211 -106 -348q-121 -152 -322 -151q-203 0 -317 151q-104 139 -105 346zM162 1155q0 51 34.5 90t86.5 39q51 0 89 -38t38 -91q0 -51 -37 -88t-88 -37t-87 37t-36 88zM258 481q0 -139 41 -237 q59 -127 184 -127q222 -1 222 364q0 313 -226 326l2 -2q-223 -14 -223 -324zM555 1157q0 53 35 91t88 38q51 0 88 -38t37 -91q0 -51 -36 -88t-87 -37v-2q-53 0 -89 37t-36 90z" />
<glyph unicode="&#xf7;" horiz-adv-x="980" d="M72 563v142h837v-142h-837zM344 250q0 63 44 106t106 43q63 0 106 -43t43 -106q0 -61 -43 -106.5t-106 -45.5q-61 0 -105.5 45t-44.5 107zM344 999q0 63 44 107.5t106 44.5q63 0 106 -44.5t43 -107.5q0 -61 -43 -105t-106 -44q-61 0 -105.5 44t-44.5 105z" />
<glyph unicode="&#xf8;" horiz-adv-x="980" d="M66 479q0 199 112 330q119 139 314 143q16 0 59 -6l35 119h170l-54 -170q104 -66 160 -180q53 -111 53 -236q0 -207 -108 -346q-117 -152 -320 -151h2q-10 0 -25 1t-36 3l-37 -121l-166 -2l54 174q-213 133 -213 442zM270 481q0 -176 64 -272l178 596q-6 2 -23 2 q-219 0 -219 -326zM469 117h25q219 0 219 362q0 156 -62 242z" />
<glyph unicode="&#xf9;" horiz-adv-x="911" d="M20 246v684h191v-613q0 -88 65 -141q59 -47 162 -43q55 2 156 0v797h190v-789q0 -98 107 -131v-18h-549q-129 0 -219 59q-102 72 -103 195zM166 1231l78 158l407 -242l-69 -117z" />
<glyph unicode="&#xfa;" horiz-adv-x="909" d="M20 246v684h191v-613q0 -92 61.5 -139t165.5 -45q55 2 156 0v797h190v-789q0 -98 107 -131v-18h-549q-131 0 -221 59q-100 70 -101 195zM176 1147l70 -117l416 201l-78 158z" />
<glyph unicode="&#xfb;" horiz-adv-x="919" d="M25 246v684h190v-613q0 -88 66 -141q59 -47 161 -43q55 2 156 0v797h190v-789q0 -98 107 -131v-18h-549q-129 0 -219 59q-102 72 -102 195zM45 1143l361 262l380 -262l-92 -117l-288 162l-281 -162z" />
<glyph unicode="&#xfc;" horiz-adv-x="962" d="M47 246v684h191v-613q0 -92 61 -139t166 -45q55 2 156 0v797h190v-789q0 -98 107 -131v-18h-549q-129 0 -219 59q-102 72 -103 195zM113 1155q0 53 33.5 91t86.5 38q51 0 90 -38t39 -91q0 -51 -36.5 -88t-87.5 -37t-88 37t-37 88zM508 1157q0 53 35 91t88 38q51 0 87 -38 t36 -91q0 -51 -36 -88t-87 -37v-2q-53 0 -88 37t-35 90z" />
<glyph unicode="&#xfd;" horiz-adv-x="989" d="M102 262v635l193 64v-652q0 -90 59 -139q53 -47 144 -43q80 2 194 68v735h193v-826q0 -252 -54 -358q-51 -104 -204 -164q-123 -45 -265 -47l-32 135q74 10 121 19.5t69 15.5q117 33 154 105q27 47 26 223l2 4q-152 -53 -294 -57q-121 0 -213 79q-92 84 -93 203z M264 1147l70 -117l416 201l-78 158z" />
<glyph unicode="&#xfe;" horiz-adv-x="974" d="M94 -477v1802h189v-387h10h233q182 0 289 -162q98 -143 98 -332q0 -188 -96 -319q-109 -141 -291 -148v-2h-8q-123 -2 -235 62v-361q0 -115 106 -135v-18h-295zM283 186q109 -66 198 -65q221 0 221 330q0 348 -198 348v2h-133q-88 -1 -88 -60v-555z" />
<glyph unicode="&#xff;" horiz-adv-x="999" d="M109 260v670h57q135 0 135 -142v-481q0 -92 55.5 -138t147.5 -44q88 4 194 70v735h193v-830q0 -250 -53 -352v2q-49 -94 -176 -153q-74 -33 -130 -41q-111 -20 -116 -140l-17 -2l-63 254q74 10 121 19.5t69 15.5q115 33 154 104q27 47 27 224l2 4q-137 -55 -295 -55 q-121 0 -213 79q-92 84 -92 201zM176 1157q0 53 35 91t86 38q53 0 91 -38t38 -91t-36 -90t-89 -37q-51 0 -88 38t-37 89zM571 1157q0 53 35 91t88 38t88 -39t35 -92q0 -51 -36 -88t-87 -37t-87 37t-36 90z" />
<glyph unicode="&#x152;" horiz-adv-x="1751" d="M53 680q0 264 133 459q147 211 379 211q246 0 389 -222v43q0 102 -106 134v18h848v-229h-17q-27 106 -139 106h-395v-473h411v-119h-411v-432q0 -55 59 -55h492v-121h-604q-137 0 -138 133v82q-143 -233 -389 -233q-233 0 -381 225q-131 199 -131 473zM248 680 q0 -227 92 -385q102 -170 227 -170q154 0 246 203q74 164 74 352q0 186 -76 336q-90 182 -246 182q-152 0 -243 -182q-74 -150 -74 -336z" />
<glyph unicode="&#x153;" horiz-adv-x="1531" d="M61 481q0 195 115 332q117 137 311 137q211 0 332 -170q102 160 291 160q354 0 360 -485h-538v-25q-4 -123 61 -219q72 -109 193 -109q115 0 217 146l20 -10l-45 -238h-237q-225 0 -326 150q-119 -166 -332 -166q-201 0 -317 151q-104 139 -105 346zM264 481 q0 -362 223 -362q222 0 222 360q0 125 -47 215q-61 111 -179 111q-117 0 -176 -109q-43 -82 -43 -215zM940 586h338q-2 82 -39 147q-43 74 -123 74q-147 0 -176 -221z" />
<glyph unicode="&#x178;" horiz-adv-x="1079" d="M45 1321h115q76 0 116 -39q10 -10 29 -36.5t41 -67.5l221 -402q31 57 106 192.5t193 352.5h168l-399 -727v-428q0 -113 108 -148v-18h-299v610zM227 1513q0 53 35 91t88 38q51 0 89 -37.5t38 -88.5q0 -53 -35.5 -90t-89.5 -37v-3q-51 0 -88 38t-37 89zM623 1516 q0 53 34.5 91t87.5 38q51 0 88 -38t37 -91q0 -51 -35.5 -88t-86.5 -37v-2q-53 0 -89 36.5t-36 90.5z" />
<glyph unicode="&#x2c6;" horiz-adv-x="860" d="M76 1198l352 236l354 -236l-65 -102l-289 188l-281 -186zM76 1198l352 236l354 -236l-65 -102l-289 188l-281 -186z" />
<glyph unicode="&#x2dc;" horiz-adv-x="837" d="M74 1139q117 111 252 114q16 0 116 -32l105 -33q51 0 137 67l80 -104q-119 -113 -252 -113q-2 0 -115 33l-108 31q-51 0 -135 -66z" />
<glyph unicode="&#x2000;" horiz-adv-x="898" />
<glyph unicode="&#x2001;" horiz-adv-x="1796" />
<glyph unicode="&#x2002;" horiz-adv-x="898" />
<glyph unicode="&#x2003;" horiz-adv-x="1796" />
<glyph unicode="&#x2004;" horiz-adv-x="598" />
<glyph unicode="&#x2005;" horiz-adv-x="449" />
<glyph unicode="&#x2006;" horiz-adv-x="299" />
<glyph unicode="&#x2007;" horiz-adv-x="299" />
<glyph unicode="&#x2008;" horiz-adv-x="224" />
<glyph unicode="&#x2009;" horiz-adv-x="359" />
<glyph unicode="&#x200a;" horiz-adv-x="99" />
<glyph unicode="&#x2010;" d="M72 469v166h420v-166h-420z" />
<glyph unicode="&#x2011;" d="M72 469v166h420v-166h-420z" />
<glyph unicode="&#x2012;" d="M72 469v166h420v-166h-420z" />
<glyph unicode="&#x2013;" horiz-adv-x="1343" d="M115 381v137h1038l78 -137h-1116z" />
<glyph unicode="&#x2014;" horiz-adv-x="1820" d="M168 526v140h1407l78 -140h-1485z" />
<glyph unicode="&#x2018;" horiz-adv-x="405" d="M66 1006q-6 63 4 106q20 78 92 156q29 31 86 67l55 -80q-74 -53 -94 -116h2q92 -21 92 -119q0 -51 -33.5 -89t-85.5 -38q-47 0 -80.5 32.5t-37.5 80.5z" />
<glyph unicode="&#x2019;" horiz-adv-x="479" d="M123 965q74 53 94 116h-2q-92 23 -92 119q0 51 33.5 89t85.5 38q47 0 80.5 -33t37.5 -80q6 -63 -4 -106q-20 -78 -92 -156q-27 -31 -86 -67z" />
<glyph unicode="&#x201a;" horiz-adv-x="442" d="M102 -127q74 53 95 117h-2q-92 23 -91 119q0 51 33 89t84 38q47 0 81 -33t38 -80q6 -63 -4 -107q-20 -78 -92 -155q-27 -31 -86 -68z" />
<glyph unicode="&#x201c;" horiz-adv-x="700" d="M61 1006q-6 63 5 106q20 78 92 156q25 25 92 67l59 -80q-76 -51 -100 -116h2q96 -23 96 -119q0 -51 -34.5 -89t-86.5 -38q-49 0 -84.5 31.5t-40.5 81.5zM362 1006q-6 63 5 106q20 78 92 156q29 29 92 67l57 -80q-76 -51 -98 -116q96 -23 96 -119q0 -51 -34.5 -89 t-86.5 -38q-49 0 -83.5 31.5t-39.5 81.5z" />
<glyph unicode="&#x201d;" horiz-adv-x="684" d="M55 965q78 53 99 116h-2q-96 23 -95 119q0 51 35 89t86 38q47 0 83 -32t40 -81q6 -63 -4 -106q-20 -78 -92 -156q-27 -27 -92 -67zM354 965q78 53 99 116q-96 23 -97 119q0 51 35 89t86 38q47 0 83 -32t40 -81q6 -63 -4 -106q-20 -78 -92 -156q-27 -27 -92 -67z" />
<glyph unicode="&#x201e;" horiz-adv-x="839" d="M100 -127q78 51 99 117h-2q-94 20 -95 121q2 51 36 88t85 37q49 0 84 -32t39 -81q6 -63 -4 -107q-20 -78 -92 -155q-12 -14 -34.5 -29.5t-57.5 -36.5zM492 -127q78 51 98 117h-2q-94 20 -94 121q2 51 35.5 88t84.5 37q49 0 84 -32t39 -81q6 -63 -4 -107q-20 -78 -92 -155 q-12 -14 -34.5 -29.5t-57.5 -36.5z" />
<glyph unicode="&#x2022;" horiz-adv-x="856" d="M111 645q0 135 92 223q92 92 225 93q133 0 225 -93q92 -88 92 -223q0 -133 -92 -225t-225 -92t-225 92q-92 96 -92 225z" />
<glyph unicode="&#x2026;" horiz-adv-x="1318" d="M80 100q0 53 36 88t89 35q51 0 88 -36t37 -87t-37 -84.5t-86 -33.5q-51 0 -89 33.5t-38 84.5zM537 100q0 51 35.5 87t86.5 36t88 -36t37 -87t-36.5 -84.5t-85.5 -33.5q-51 0 -88 33.5t-37 84.5zM991 100q0 51 36 87t87 36t88 -36t37 -87t-37 -84.5t-86 -33.5 q-51 0 -88 33.5t-37 84.5z" />
<glyph unicode="&#x202f;" horiz-adv-x="359" />
<glyph unicode="&#x2039;" horiz-adv-x="675" d="M88 608l350 510l150 -96l-283 -414l283 -413l-150 -97z" />
<glyph unicode="&#x203a;" horiz-adv-x="690" d="M94 195l281 413l-281 414l148 96l352 -510l-352 -510z" />
<glyph unicode="&#x205f;" horiz-adv-x="449" />
<glyph unicode="&#x20ac;" horiz-adv-x="1120" d="M6 639v121h76q31 238 162 389q147 174 372 174h369l37 -285l-18 -10q-115 164 -283 164q-371 0 -410 -432h420v-121h-426q4 -61 12 -119h416v-121h-385q84 -250 283 -249q102 0 176 30q66 25 154 92l75 -120q-201 -162 -438 -162q-172 0 -305 125q-121 111 -178 284h-107 v121h76q-4 31 -7 60.5t-3 58.5h-68z" />
<glyph unicode="&#x2122;" horiz-adv-x="1351" d="M104 1257l2 66l439 2v-70h-178v-483q0 -63 51 -72v-8h-144v563zM604 694v6q51 18 51 70v481q0 57 -51 66v8h139l211 -494l195 494h98v-569q0 -66 -61 -66h-31v463l-176 -459h-78l-176 443v-443h-121z" />
<glyph unicode="&#xe000;" horiz-adv-x="931" d="M0 0v932h932v-932h-932z" />
</font>
</defs>
</svg>
